<?xml version="1.0" encoding="utf-8"?>
<!-- Generator: Adobe Illustrator 19.1.0, SVG Export Plug-In . SVG Version: 6.00 Build 0)  -->
<svg version="1.1" id="Layer_1" xmlns="http://www.w3.org/2000/svg" xmlns:xlink="http://www.w3.org/1999/xlink" x="0px" y="0px"
	 viewBox="0 0 104 92.8" style="enable-background:new 0 0 104 92.8;" xml:space="preserve">
<style type="text/css">
	.st0{fill:#ED2224;}
</style>
<g>
	<path class="st0" d="M78.5,49.7l-0.4-1.9l0-0.1l0.1,0l3,0.9L81,48.8L81,45.7l0-0.2l0.2,0.1l4.6,1.4l-0.4,0.3l-0.1-5.1l0-0.5
		l0.5,0.1c1.9,0.3,3.8,0.6,5.6,1l-0.6,0.6l-0.6-4.4l-0.1-0.7l0.6,0.1l5.5,0.8l-0.5,0.6l-1.7-5.2l-0.2-0.6l0.6-0.1l7.6-0.6l-0.3,0.9
		l-5.1-4.8l-0.5-0.5l0.6-0.3l4.7-2.5l-0.1,0.8l-4.1-3L97,23.3l0.3-0.4l2.7-3.5l0.2,0.8L97,18.7l-0.8-0.4l0.7-0.5l5.7-4l0.1,0.9
		l-4.5-1.5L97.7,13l0.4-0.6l2.9-4.1l0.6,0.8l-4.7,1.7l-0.6,0.2l0-0.7L96,5.7l0.8,0.4l-5.4,4.5l-0.7,0.6l-0.1-0.9L90,6.7l0.7,0.4
		l-4.1,1.7L86.1,9L86,8.5l-1.8-4.8L85,3.9l-3.7,3.9l-0.5,0.5l-0.3-0.6l-3.3-6.2l0.9-0.1l-2.6,7.2l-0.2,0.6l-0.5-0.3l-4.6-3l0.8-0.4
		L70.2,11l-0.1,0.7l-0.6-0.3l-4.1-1.7l0.7-0.4c-0.1,1.9-0.4,3.8-0.6,5.7l0,0.5l-0.5-0.1l-4.9-1.5l0.4-0.3l0.1,4.8l0,0.3l-0.2-0.1
		l-3-0.9l0.1-0.1l0,3.1v0.1l0,0l-1.7-0.8l1.7,0.8l-0.1,0l-0.2-3.1l0-0.1l0.2,0l3,0.7l-0.2,0.2L60,13.6l0-0.4l0.4,0.1l4.9,1.3
		L64.8,15c0.1-1.9,0.2-3.8,0.4-5.7l0.1-0.7l0.6,0.3l4.1,1.7l-0.7,0.4l0.7-5.5L70,4.6l0.7,0.4l4.6,3l-0.7,0.2l2.6-7.2L77.5,0l0.5,1
		l3.3,6.2l-0.8-0.1l3.7-3.9l0.5-0.6l0.3,0.8l1.8,4.8l-0.7-0.3l4.1-1.7l0.6-0.2L91,6.5l0.6,3.6l-0.8-0.3l5.4-4.5l0.8-0.6l0,1l0.2,4.7
		l-0.7-0.4l4.7-1.7l1.5-0.6l-0.9,1.3L98.9,13l-0.3-0.8l4.5,1.5L104,14l-0.8,0.6l-5.7,4l-0.1-0.9l3.3,1.5l0.6,0.3l-0.4,0.5l-2.7,3.5
		L98,22.8l4.1,3l0.6,0.5l-0.7,0.4l-4.7,2.5l0.1-0.8l5.1,4.8l0.8,0.8l-1.1,0.1l-7.6,0.6l0.4-0.6l1.7,5.2l0.2,0.8L96.2,40l-5.5-0.8
		l0.6-0.6l0.6,4.4l0.1,0.7l-0.7-0.1c-1.9-0.4-3.7-0.8-5.6-1.2l0.5-0.4L86,47.2l0,0.4l-0.4-0.1l-4.5-1.6l0.2-0.2l-0.1,3.1l0,0.2
		l-0.1,0l-2.9-1l0.1,0L78.5,49.7z"/>
</g>
</svg>
