<?xml version="1.0" encoding="utf-8"?>
<!-- Generator: Adobe Illustrator 19.1.0, SVG Export Plug-In . SVG Version: 6.00 Build 0)  -->
<svg version="1.1" id="Layer_1" xmlns="http://www.w3.org/2000/svg" xmlns:xlink="http://www.w3.org/1999/xlink" x="0px" y="0px"
	 viewBox="0 0 104 92.8" style="enable-background:new 0 0 104 92.8;" xml:space="preserve">
<style type="text/css">
	.st0{fill:#616161;}
</style>
<path class="st0" d="M28.8,83.6l60.7-48.1c-0.1,0.1,7.9-6.1,4.5-16.3c-0.3-1,0-2,0.8-2.6c0,0,2-1.5,0.2-3.8
	c-1.9-2.2-3.7-0.6-3.7-0.6l0,0c-0.8,0.6-1.9,0.7-2.8,0.2c-9.2-5.6-16.9,0.9-16.8,0.8L11.1,61.2c-3.1-0.9-6-0.6-8.1,1.1
	c-4.8,3.8-3.6,13.4,2.7,21.4S21.1,95,25.9,91.2C28,89.5,28.9,86.8,28.8,83.6z M9.5,80.7C4.2,74,1.9,67,5.2,64.3
	C6,63.7,7,63.4,8.2,63.5l-2.3,1.8C5.4,65.7,5,66.3,5,67c-0.1,1.9,0.5,6.3,5.6,12.8c5.2,6.5,9.3,8,11.2,8.4c0.7,0.1,1.4-0.1,1.9-0.5
	l2.4-1.9c-0.2,1.2-0.7,2.2-1.6,2.9C21.2,91.3,14.8,87.5,9.5,80.7z"/>
</svg>
